<?xml version="1.0" standalone="no"?><svg xmlns="http://www.w3.org/2000/svg" viewBox="0 0 1440 320"><path fill="#ffffff" fill-opacity="1" d="M0,64L26.7,58.7C53.3,53,107,43,160,69.3C213.3,96,267,160,320,197.3C373.3,235,427,245,480,256C533.3,267,587,277,640,250.7C693.3,224,747,160,800,138.7C853.3,117,907,139,960,170.7C1013.3,203,1067,245,1120,229.3C1173.3,213,1227,139,1280,138.7C1333.3,139,1387,213,1413,250.7L1440,288L1440,320L1413.3,320C1386.7,320,1333,320,1280,320C1226.7,320,1173,320,1120,320C1066.7,320,1013,320,960,320C906.7,320,853,320,800,320C746.7,320,693,320,640,320C586.7,320,533,320,480,320C426.7,320,373,320,320,320C266.7,320,213,320,160,320C106.7,320,53,320,27,320L0,320Z"></path></svg>